<?xml version="1.0" encoding="UTF-8" standalone="no"?>
<svg
   id="Layer_1"
   version="1.1"
   viewBox="0 0 400.28003 400.27054"
   width="364.05463"
   height="364.04599"
   xmlns="http://www.w3.org/2000/svg"
   xmlns:svg="http://www.w3.org/2000/svg">
  <!-- Generator: Adobe Illustrator 29.4.0, SVG Export Plug-In . SVG Version: 2.1.0 Build 152)  -->
  <defs
     id="defs17">
    <style
       id="style2">
      .st0 {
        fill: #662d91;
      }

      .st1 {
        fill: #8cbf3f;
      }

      .st2, .st3 {
        fill: #ffe900;
      }

      .st4 {
        fill: #543386;
      }

      .st3 {
        stroke: #ffe900;
        stroke-miterlimit: 10;
        stroke-width: 8.5px;
      }

      .st5 {
        fill: url(#linear-gradient);
      }

      .st6 {
        fill: #fff;
      }

      .st7 {
        fill: #76603b;
      }

      .st8 {
        fill: #ae8b21;
      }

      .st9 {
        fill: #622599;
      }
    </style>
    <linearGradient
       id="linear-gradient"
       x1="99.440002"
       y1="276.17999"
       x2="361.95001"
       y2="276.17999"
       gradientUnits="userSpaceOnUse"
       gradientTransform="translate(-19.81,-21.67)">
      <stop
         offset=".25"
         stop-color="#8cbf3f"
         id="stop4" />
      <stop
         offset=".38"
         stop-color="#85bb3f"
         id="stop6" />
      <stop
         offset=".56"
         stop-color="#74b23f"
         id="stop8" />
      <stop
         offset=".76"
         stop-color="#57a241"
         id="stop10" />
      <stop
         offset=".99"
         stop-color="#2f8c42"
         id="stop12" />
      <stop
         offset="1"
         stop-color="#2d8b43"
         id="stop14" />
    </linearGradient>
  </defs>
  <path
     class="st0"
     d="m 79.63,193.83 c 0.17,4.85 0.57,9.72 1.23,14.59 0.8,5.96 1.97,11.87 3.54,17.73 18.86,70.4 86.68,105.5 150.08,89 38.34,-9.98 70.53,-37.11 89.26,-71.57 -38.84,-32.26 -107.82,-53.72 -186.46,-53.72 -19.95,0 -39.27,1.39 -57.64,3.98 z"
     id="path19" />
  <path
     class="st5"
     d="m 79.63,193.83 c 0.17,4.85 0.57,9.72 1.23,14.59 0.8,5.96 1.97,11.87 3.54,17.73 18.86,70.4 86.68,105.5 150.08,89 38.34,-9.98 70.53,-37.11 89.26,-71.57 -38.84,-32.26 -107.82,-53.72 -186.46,-53.72 -19.95,0 -39.27,1.39 -57.64,3.98 z"
     id="path21"
     style="fill:url(#linear-gradient)" />
  <g
     id="g27"
     transform="translate(-19.81,-21.67)">
    <path
       class="st2"
       d="M 224.79,64.57 C 149.16,73.22 96.9,141.99 99.44,215.5 c 18.37,-2.59 37.69,-3.98 57.64,-3.98 78.64,0 147.62,21.46 186.46,53.72 1.06,-1.96 2.09,-3.93 3.07,-5.94 9.12,-18.72 14.69,-39.93 15.21,-62.36 1.79,-76.52 -56.8,-141.55 -137.03,-132.38 z"
       id="path23" />
    <path
       class="st1"
       d="m 99.44,215.5 c 0.17,4.85 0.57,9.72 1.23,14.59 0.8,5.96 1.97,11.87 3.54,17.73 18.86,70.4 86.68,105.5 150.08,89 38.34,-9.98 70.53,-37.11 89.26,-71.57 -38.84,-32.26 -107.82,-53.72 -186.46,-53.72 -19.95,0 -39.27,1.39 -57.64,3.98 z"
       id="path25" />
  </g>
  <path
     class="st1"
     d="M 200.13,0 C 89.6,0 0,89.6 0,200.13 c 0,110.53 89.6,200.14 200.14,200.14 110.54,0 200.14,-89.6 200.14,-200.14 C 400.28,89.59 310.67,0 200.13,0 Z m 0,383.28 c -101.15,0 -183.15,-82 -183.15,-183.15 0,-101.15 82,-183.15 183.15,-183.15 101.15,0 183.15,82 183.15,183.15 0,101.15 -82,183.15 -183.15,183.15 z"
     id="path29" />
  <g
     id="g57"
     transform="translate(-19.81,-21.67)">
    <path
       class="st0"
       d="m 161.2,83.5 0.89,-24.27 -13.02,19.85 c 4.2,1.04 8.26,2.53 12.13,4.41 z"
       id="path31" />
    <path
       class="st9"
       d="m 184.01,73.95 -19.26,11.47 c 4.18,2.65 10.38,7.19 13.82,10.81 z"
       id="path33" />
    <path
       class="st9"
       d="m 225.09,119.75 -33.72,0.52 c 2.12,2.55 3.28,8.07 3.63,13.58 l 30.1,-14.1 z"
       id="path35" />
    <path
       class="st9"
       d="m 190.3,114.2 10.66,-16.13 -17.09,4.53 c 1.75,2.44 3.34,5.03 4.73,7.77 0.64,1.26 1.16,2.55 1.71,3.83 z"
       id="path37" />
    <path
       class="st9"
       d="m 215.39,143.73 -20.33,-7.11 c 0.1,5.74 -0.62,11.43 -2.11,16.92 z"
       id="path39" />
    <path
       class="st9"
       d="m 191.91,192.41 -9.72,-17.37 c -2.31,2.96 -4.91,5.71 -7.79,8.22 l 17.51,9.14 z"
       id="path41" />
    <path
       class="st9"
       d="m 187.48,167.17 29.4,4.36 -24.49,-16.01 c -1.24,4.03 -2.86,7.95 -4.92,11.65 z"
       id="path43" />
    <path
       class="st9"
       d="m 155.45,194.53 21.34,23.06 -9.29,-29.04 c -1.76,1.13 -3.58,2.19 -5.49,3.16 -2.15,1.09 -4.35,2 -6.56,2.82 z"
       id="path45" />
    <path
       class="st9"
       d="m 122.28,226.65 10.14,-28.46 c -5.32,-0.21 -10.56,-1.12 -15.61,-2.68 z"
       id="path47" />
    <path
       class="st9"
       d="m 145.79,215.82 3.39,-19.38 c -5.33,1.32 -10.73,1.93 -16.08,1.79 z"
       id="path49" />
    <path
       class="st0"
       d="m 146.46,191.05 c 0.98,-0.22 1.95,-0.41 2.92,-0.68 v -0.25 c 0,0 -2.92,0.93 -2.92,0.93 z"
       id="path51" />
    <path
       class="st9"
       d="m 94.45,207.39 19.01,-13.05 c -5.59,-2.09 -10.87,-4.99 -15.66,-8.66 l -3.35,21.72 z"
       id="path53" />
    <path
       class="st0"
       d="m 79.2,161.97 -17.17,25.76 29.19,-7.8 c -4.15,-4.26 -7.73,-9.21 -10.56,-14.79 -0.51,-1.01 -0.99,-2.06 -1.46,-3.17 z"
       id="path55" />
  </g>
  <path
     class="st3"
     d="m 57.99,114.29 c -0.08,2.58 -0.06,5.18 0.21,7.83 3.25,31.64 31.54,54.64 63.17,51.39 31.64,-3.25 54.64,-31.53 51.39,-63.17 C 170.21,85.51 152.21,66.06 129.3,60.39 L 90.96,82.02 57.99,114.3 Z"
     id="path59" />
  <path
     class="st9"
     d="m 57.99,114.29 c -0.08,2.58 -0.06,5.18 0.21,7.83 3.25,31.64 31.54,54.64 63.17,51.39 31.64,-3.25 54.64,-31.53 51.39,-63.17 C 170.21,85.51 152.21,66.06 129.3,60.39 L 90.96,82.02 57.99,114.3 Z"
     id="path61" />
  <path
     class="st9"
     d="m 200.13,16.63 c -102.09,0 -184.85,82.76 -184.85,184.85 0,102.09 82.76,184.85 184.85,184.85 102.09,0 184.85,-82.76 184.85,-184.85 C 384.98,99.39 302.22,16.63 200.13,16.63 Z M 326.8,237.64 c -0.98,2 -2.01,3.98 -3.07,5.94 -18.73,34.46 -50.91,61.59 -89.26,71.57 -63.41,16.5 -131.22,-18.6 -150.08,-89 -1.57,-5.85 -2.74,-11.77 -3.54,-17.73 -0.65,-4.87 -1.06,-9.74 -1.23,-14.59 C 77.08,120.33 129.34,51.55 204.97,42.9 285.2,33.73 343.79,98.76 342,175.28 c -0.52,22.43 -6.09,43.64 -15.21,62.36 z"
     id="path63" />
  <g
     id="g91"
     transform="translate(-19.81,-21.67)">
    <path
       class="st6"
       d="m 80.66,225.67 -5.63,-3.23 c 1.24,-1.35 2.05,-3.06 2.13,-4.85 0.08,-1.67 -0.84,-3.24 -2.24,-3.3 -1.29,-0.06 -2.18,1.04 -3.11,3.77 -0.49,1.42 -0.93,2.73 -1.55,3.85 -1.46,2.67 -3.55,4.29 -7.04,4.12 -3.53,-0.17 -6.1,-1.35 -7.57,-3.32 -1.82,-2.48 -2.45,-5.37 -2.31,-8.29 0.17,-3.53 1.55,-7.04 3.74,-9.87 l 5.85,3.47 c -2.2,2.29 -3.17,4.34 -3.27,6.43 -0.1,2.13 0.93,3.7 2.71,3.78 2.13,0.1 2.91,-2.76 3.48,-4.36 1.39,-3.74 2.26,-7.66 8.45,-7.37 5.85,0.27 9.41,4.59 9.14,10.28 -0.13,2.85 -1.17,6.26 -2.77,8.89 z"
       id="path65" />
    <path
       class="st6"
       d="m 75.51,252.55 c 1.81,-1.73 2.62,-4.33 2.29,-6.89 -0.57,-4.37 -4.3,-7.14 -8.86,-6.55 -4.64,0.6 -7.3,4.25 -6.73,8.69 0.31,2.37 1.71,4.61 3.84,5.98 l -8.86,1.15 c -1.66,-3.66 -1.94,-4.62 -2.17,-6.35 -0.7,-5.39 1.58,-11.13 5.76,-14.36 1.95,-1.48 4.36,-2.44 7.18,-2.81 8.86,-1.15 15.95,5.36 16.95,13.05 0.31,2.37 0.06,4.59 -0.55,6.93 l -8.86,1.15 z"
       id="path67" />
    <path
       class="st6"
       d="m 62.52,279.04 c -3.45,-9.79 1.86,-17.7 9.24,-20.3 7.1,-2.5 12.02,0.84 13.53,1.92 3.46,2.49 5.13,5.64 5.97,8.01 2.71,7.67 -0.36,16.93 -8.64,19.85 -9.46,3.34 -17.43,-1.87 -20.11,-9.47 z m 17.49,2.17 c 3.8,-1.34 5.88,-6.06 4.43,-10.18 -1.39,-3.94 -5.94,-6.45 -9.81,-5.08 -4.62,1.63 -6.86,6.25 -5.37,10.48 1.52,4.3 6.24,6.38 10.76,4.79 z"
       id="path69" />
    <path
       class="st6"
       d="m 101.1,292.44 -12.98,8.19 c -3.12,1.97 -6.14,4.37 -3.66,8.29 2.43,3.86 5.85,2.29 9.03,0.28 l 13.01,-8.21 3.98,6.3 -13.91,8.78 c -2.8,1.76 -4.82,2.68 -6.94,2.89 -3.72,0.37 -7.67,-1.76 -10.7,-6.55 -1.6,-2.54 -3.12,-6.16 -2.37,-9.74 0.68,-3.12 2.58,-5.17 6.66,-7.75 l 13.91,-8.78 3.98,6.3 z"
       id="path71" />
    <path
       class="st6"
       d="m 125.94,324.08 -4.63,4.28 -4.18,-4.52 -16.41,15.16 -5.06,-5.47 16.41,-15.17 -4.18,-4.52 4.63,-4.28 13.41,14.51 z"
       id="path73" />
    <path
       class="st6"
       d="m 142.85,339.56 -5.88,2.76 c -0.39,-1.79 -1.33,-3.43 -2.75,-4.52 -1.32,-1.02 -3.13,-1.17 -3.99,-0.06 -0.79,1.02 -0.4,2.38 1.31,4.71 0.89,1.21 1.71,2.33 2.26,3.48 1.35,2.73 1.47,5.36 -0.67,8.13 -2.16,2.8 -4.61,4.22 -7.06,4.29 -3.08,0.07 -5.8,-1.07 -8.11,-2.86 -2.8,-2.16 -4.88,-5.31 -5.94,-8.72 l 6.2,-2.8 c 0.62,3.12 1.73,5.09 3.39,6.36 1.68,1.3 3.56,1.36 4.65,-0.05 1.3,-1.68 -0.59,-3.96 -1.58,-5.35 -2.26,-3.29 -4.97,-6.24 -1.18,-11.14 3.58,-4.63 9.16,-5.07 13.67,-1.59 2.25,1.74 4.46,4.55 5.68,7.37 z"
       id="path75" />
    <path
       class="st6"
       d="m 182.84,364.04 -7.66,0.32 c -0.03,-3.09 -1.55,-5.44 -4.22,-6.43 -4.92,-1.83 -8.78,2.25 -10.13,5.88 -1.32,3.56 -1.06,9.17 3.96,11.04 3.28,1.22 6,0.21 7.36,-2.57 l -5.7,-2.12 2.04,-5.48 13.85,5.15 c -1.27,3.3 -2.58,5.65 -3.85,7.08 -3.91,4.42 -9.5,6.04 -15.87,3.67 -8.37,-3.11 -12.23,-10.95 -9.05,-19.5 3.28,-8.83 11.36,-12.24 19.94,-9.04 5.52,2.05 8.87,6.13 9.32,12.02 z"
       id="path77" />
    <path
       class="st6"
       d="m 198.59,389.49 c -10.28,-1.38 -14.91,-9.71 -13.87,-17.47 1,-7.46 6.22,-10.32 7.87,-11.17 3.79,-1.94 7.36,-2 9.85,-1.67 8.06,1.08 14.91,8.02 13.74,16.72 -1.33,9.94 -9.6,14.66 -17.58,13.59 z m 9.89,-14.58 c 0.54,-3.99 -2.72,-8 -7.05,-8.58 -4.14,-0.56 -8.44,2.35 -8.99,6.42 -0.65,4.86 2.44,8.95 6.88,9.55 4.52,0.61 8.52,-2.65 9.16,-7.39 z"
       id="path79" />
    <path
       class="st6"
       d="m 254.25,359.31 -1.94,6.2 c -1.59,-0.92 -3.43,-1.34 -5.19,-1.03 -1.65,0.28 -2.98,1.52 -2.74,2.9 0.22,1.27 1.49,1.9 4.35,2.22 1.49,0.17 2.87,0.32 4.09,0.68 2.92,0.85 4.95,2.54 5.54,5.98 0.6,3.48 0,6.25 -1.61,8.1 -2.03,2.32 -4.71,3.55 -7.59,4.05 -3.48,0.6 -7.21,0 -10.44,-1.51 l 2.12,-6.46 c 2.71,1.65 4.92,2.16 6.98,1.8 2.1,-0.36 3.41,-1.71 3.1,-3.47 -0.36,-2.1 -3.32,-2.24 -5.01,-2.45 -3.95,-0.55 -7.96,-0.55 -9.01,-6.66 -1,-5.77 2.45,-10.18 8.06,-11.15 2.81,-0.49 6.36,-0.21 9.27,0.79 z"
       id="path81" />
    <path
       class="st6"
       d="m 282.69,379.24 c -9.65,3.8 -17.76,-1.21 -20.63,-8.49 -2.76,-7 0.4,-12.04 1.42,-13.59 2.36,-3.54 5.45,-5.34 7.79,-6.26 7.57,-2.98 16.93,-0.26 20.15,7.91 3.68,9.33 -1.24,17.48 -8.73,20.43 z m 1.54,-17.55 c -1.48,-3.75 -6.27,-5.66 -10.34,-4.05 -3.89,1.53 -6.23,6.17 -4.72,9.99 1.8,4.56 6.49,6.63 10.67,4.99 4.24,-1.67 6.15,-6.47 4.39,-10.92 z"
       id="path83" />
    <path
       class="st6"
       d="m 295.73,339.43 12.03,18.83 7.53,-4.81 3.4,5.32 -13.8,8.82 -15.43,-24.15 6.28,-4.01 z"
       id="path85" />
    <path
       class="st6"
       d="m 317.98,321.73 27.38,13.7 -5.83,5.39 -4.75,-2.39 -7.53,6.97 1.93,5 -5.8,5.37 -11.37,-28.51 5.97,-5.52 z m 6.91,18.09 4.55,-4.21 -8.42,-4.63 -0.06,0.05 3.93,8.78 z"
       id="path87" />
    <path
       class="st6"
       d="m 334.29,302.4 c 3.32,-4.68 8.06,-6.35 12.89,-2.92 3.38,2.4 4.65,6.24 2.97,9.8 l 14.79,-0.54 -5.37,7.56 -13.06,-0.65 -0.04,0.06 8.98,6.38 -4.31,6.07 -23.36,-16.6 6.52,-9.17 z m 8.26,10.54 0.37,-0.53 c 2.11,-2.97 2.11,-4.94 0.13,-6.34 -1.98,-1.41 -3.81,-0.8 -5.95,2.21 l -0.37,0.53 5.82,4.14 z"
       id="path89" />
  </g>
  <g
     id="g119"
     transform="translate(-19.81,-21.67)">
    <g
       id="g99">
      <polygon
         class="st7"
         points="161.72,269.05 221.91,292.38 263.76,289.04 378.97,279.87 307.75,143.3 "
         id="polygon93" />
      <path
         class="st8"
         d="m 307.75,143.3 47.38,130.32 c 0,0 -13.71,-1.6 -25.5,10.18 -20.78,-16.12 -21.88,-35.57 -21.88,-35.57 z"
         id="path95" />
      <path
         class="st9"
         d="m 307.75,143.3 c -0.36,1.97 -18.57,99.1 -27.64,144.32 l 51.52,-3.82 C 326.86,247.61 307.75,143.3 307.75,143.3 Z"
         id="path97" />
    </g>
    <g
       id="g117">
      <polygon
         class="st8"
         points="210.61,177.36 161.72,269.05 221.91,292.38 307.75,143.3 "
         id="polygon101" />
      <g
         id="g115">
        <polygon
           class="st2"
           points="202.09,204.86 212.92,182.45 238.37,174.63 224.67,201.11 "
           id="polygon103" />
        <polygon
           class="st2"
           points="231.97,199.89 246.65,172.09 286.81,159.76 266.91,194.09 "
           id="polygon105" />
        <polygon
           class="st2"
           points="187.31,235.41 197.07,215.23 218.39,213.25 206.27,236.68 "
           id="polygon107" />
        <polygon
           class="st2"
           points="212.32,237.08 225.25,212.61 257.93,209.58 240.88,238.99 "
           id="polygon109" />
        <polygon
           class="st2"
           points="173.24,264.53 182.02,246.37 199.74,249.29 189.01,270.04 "
           id="polygon111" />
        <polygon
           class="st2"
           points="194,271.78 205.38,250.22 231.84,254.59 217.18,279.87 "
           id="polygon113" />
      </g>
    </g>
  </g>
  <path
     class="st6"
     d="m 71.48,147.52 c 3.34,0 6.14,2.62 6.14,6.05 0,3.43 -2.8,6.11 -6.14,6.11 -3.34,0 -6.14,-2.62 -6.14,-6.05 0,-3.43 2.8,-6.12 6.14,-6.12 z m 0,11.28 c 2.86,0 5.15,-2.25 5.15,-5.23 0,-2.98 -2.29,-5.17 -5.15,-5.17 -2.86,0 -5.15,2.24 -5.15,5.23 0,2.99 2.29,5.17 5.15,5.17 z m -2.27,-8.68 h 2.58 c 1.68,0 2.48,0.62 2.48,2.02 0,1.26 -0.81,1.8 -1.86,1.91 l 2.03,3.11 h -1.06 l -1.93,-3.03 h -1.26 v 3.03 h -0.98 v -7.05 z m 0.98,3.14 h 1.21 c 0.98,0 1.9,-0.05 1.9,-1.16 0,-0.98 -0.84,-1.1 -1.59,-1.1 h -1.52 z"
     id="path121" />
  <g
     id="g127"
     transform="translate(-19.81,-21.67)">
    <path
       class="st4"
       d="M 136.14,138.63"
       id="path123" />
    <path
       class="st6"
       d="m 118.57,153.83 c 1.4,0.93 2.99,1.31 4.51,0.89 1.88,-0.52 3.21,-2.1 3.83,-4.18 h 3.11 c -0.84,6.26 -3.82,9.12 -6.98,9.12 -3.65,0 -5.46,-3.16 -4.47,-5.83 z m 26.96,8.32 c -2.61,-3.3 -3.95,-7 -4.41,-11.61 h -3.13 c -0.16,5.96 -0.49,9.19 -1.12,12.44 -0.63,-3.25 -0.96,-6.48 -1.12,-12.44 h -3.13 c -0.46,4.61 -1.8,8.31 -4.41,11.61 0,0 3.63,4.27 8.66,6.79 5.03,-2.52 8.66,-6.79 8.66,-6.79 z m 5.17,-2.49 c 3.65,0 5.46,-3.16 4.47,-5.83 -1.4,0.93 -2.99,1.31 -4.51,0.89 -1.88,-0.52 -3.21,-2.1 -3.83,-4.18 h -3.11 c 0.84,6.26 3.82,9.12 6.98,9.12 z m -35.62,-12.51 c -5.33,-0.58 -9.48,-5.07 -9.48,-10.52 0,-5.84 4.77,-10.58 10.66,-10.58 8.17,0 13.51,8.79 13.97,19.27 h 2.56 c -0.42,-12.09 -6.9,-16.8 -6.9,-24.82 0,-8.68 8.92,-16.5 10.99,-18.55 2.07,2.05 10.99,9.87 10.99,18.55 0,8.02 -6.48,12.73 -6.9,24.82 h 2.56 c 0.46,-10.48 5.8,-19.27 13.97,-19.27 5.89,0 10.66,4.74 10.66,10.58 0,5.45 -4.15,9.94 -9.48,10.52 1.98,-3.97 0.27,-8.03 -3.61,-8.8 -3.42,-0.68 -7.41,1.71 -8.43,6.97 h 3.24 c 0.32,0.42 0.53,0.94 0.53,1.53 0,0.59 -0.21,1.11 -0.53,1.53 h -26 c -0.32,-0.42 -0.53,-0.94 -0.53,-1.53 0,-0.59 0.21,-1.11 0.53,-1.53 h 3.24 c -1.02,-5.27 -5.01,-7.65 -8.43,-6.97 -3.88,0.77 -5.59,4.83 -3.61,8.8 z m 42.48,-13.89 -2.33,2.3 3.24,-0.51 1.48,2.91 0.51,-3.22 3.24,-0.5 -2.92,-1.48 0.52,-3.22 -2.32,2.31 -2.92,-1.49 1.49,2.9 z m -21.92,5.83 c 0,2.32 0,4.38 0.03,6.24 h 2.41 c 0.02,-1.86 0.03,-3.92 0.03,-6.24 0,-13.94 -0.24,-23.11 -1.23,-27.76 -0.99,4.65 -1.23,13.82 -1.23,27.76 z m -20.36,-4.05 3.24,0.51 -2.33,-2.3 1.49,-2.9 -2.92,1.49 -2.32,-2.31 0.52,3.22 -2.92,1.48 3.24,0.5 0.51,3.22 1.48,-2.91 z m 12.39,44.22 c 0,-2.29 1.83,-4.16 4.11,-4.22 1.41,-0.06 2.71,-0.53 3.76,-1.09 -1.1,-0.61 -2.35,-1.17 -3.65,-1.17 -3.57,0 -6.48,2.91 -6.48,6.48 0,3.57 2.91,6.48 6.48,6.48 1.29,0 2.55,-0.56 3.65,-1.17 -1.05,-0.57 -2.35,-1.03 -3.76,-1.09 -2.28,-0.06 -4.11,-1.93 -4.11,-4.22 z m 1.37,-0.69 c 0.45,0.03 1,0.05 1.69,0.05 2.71,0 5.24,-0.75 7.75,-2.27 2.35,-1.42 2.69,-1.31 4.72,-1.31 1.03,0 2.17,-0.03 3.33,-0.22 -1.18,-1.25 -2.84,-2.04 -4.7,-2.04 -1.86,0 -2.54,0.62 -5.68,2.29 -1.31,0.71 -2.86,1.2 -4.33,1.25 -1.35,0.05 -2.49,1.01 -2.78,2.25 z m 9.44,3.6 c -2.51,-1.52 -5.04,-2.27 -7.75,-2.27 -0.7,0 -1.24,0.02 -1.69,0.05 0.29,1.24 1.43,2.2 2.78,2.25 1.48,0.05 3.02,0.54 4.33,1.25 3.14,1.67 3.91,2.29 5.68,2.29 1.77,0 3.51,-0.79 4.7,-2.04 -1.16,-0.19 -2.3,-0.22 -3.33,-0.22 -2.02,0 -2.37,0.11 -4.72,-1.31 z m 28.78,-75.93 c -8.12,-8.12 -18.91,-12.59 -30.39,-12.59 -11.48,0 -22.27,4.47 -30.39,12.59 -8.12,8.12 -12.59,18.91 -12.59,30.39 0,11.48 4.47,22.27 12.59,30.39 5.06,5.06 11.15,8.7 17.81,10.73 0.15,-0.76 0.41,-1.48 0.77,-2.15 -6.34,-1.91 -12.15,-5.37 -16.97,-10.19 -7.69,-7.69 -11.92,-17.91 -11.92,-28.78 0,-10.87 4.23,-21.09 11.92,-28.78 7.69,-7.69 17.91,-11.92 28.78,-11.92 10.87,0 21.09,4.23 28.78,11.92 7.69,7.69 11.92,17.91 11.92,28.78 0,10.87 -4.23,21.09 -11.92,28.78 -4.75,4.75 -10.82,8.31 -16.7,10.1 -0.82,0.25 -2.36,0.81 -5.76,0.8 -0.97,0 -1.68,-0.05 -2.23,0.17 -0.78,0.25 -2.47,1.41 -3.55,1.89 1.08,0.14 3.13,0.19 5.08,0.17 4.28,0.02 7.17,-0.86 7.17,-0.86 6.57,-2.04 12.59,-5.66 17.59,-10.66 8.12,-8.12 12.59,-18.91 12.59,-30.39 0,-11.48 -4.47,-22.27 -12.59,-30.39 z m -47.7,76.28 c -0.47,0.41 0.54,2.27 0.98,2.05 0.79,-0.37 2.88,-1.18 4.52,-1.66 -0.36,-0.68 -0.62,-1.39 -0.77,-2.15 -0.63,0.18 -3.34,1.06 -4.72,1.75 z m 34.45,-0.07 c -1.41,-0.61 -2.86,-1.15 -4.33,-1.61 0,0 -2.9,-0.88 -7.17,-0.86 -1.95,-0.02 -4,0.04 -5.08,0.17 1.08,0.48 2.77,1.64 3.55,1.89 0.54,0.22 1.26,0.17 2.23,0.17 3.39,-0.01 4.94,0.55 5.76,0.8 1.37,0.42 2.75,0.93 4.13,1.54 0.45,0.23 1.55,-1.8 0.93,-2.09 z"
       id="path125" />
  </g>
</svg>
