<svg xmlns="http://www.w3.org/2000/svg" viewBox="0 0 2876.38 923"><path fill="none" d="M0 0h2876.38v923H0z"/><circle cx="547" cy="462" r="413" fill="#248737"/><path fill="#fff" d="M839.23 363.26c-19.96-26.54-47.2-45.8-78.77-55.72-30.44-9.56-62.72-9.54-92.58-.68 5.28 34.1-3 70.2-26.03 99.45-1.79 2.27-3.66 4.43-5.56 6.55-11.67 11.69-37.39 32.82-77.2 41.15 6.45-35.44 1.34-65.17-4.98-85.42.64-1.12 1.27-2.25 1.93-3.36.17-.28.34-.57.51-.85.97-1.62 1.97-3.23 3-4.82.17-.26.34-.53.52-.79 1.05-1.62 2.13-3.22 3.24-4.81.13-.19.27-.38.41-.57 1.16-1.65 2.34-3.28 3.56-4.89.02-.02.03-.04.05-.06 2.36-3.13 4.83-6.17 7.39-9.14 8.53-9.9 18.12-18.89 28.64-26.8 1.4-1.05 2.81-2.08 4.23-3.08.46-.33.93-.64 1.4-.96.97-.67 1.94-1.34 2.92-1.99.55-.37 1.11-.72 1.67-1.09.9-.59 1.81-1.17 2.72-1.74.59-.37 1.19-.73 1.78-1.09.89-.54 1.79-1.08 2.69-1.61.61-.36 1.22-.7 1.83-1.05.91-.52 1.82-1.03 2.74-1.53.61-.33 1.21-.66 1.82-.98.94-.5 1.89-.99 2.84-1.48.59-.3 1.17-.6 1.76-.89 1.01-.5 2.03-.99 3.05-1.47.53-.25 1.07-.51 1.6-.76 1.19-.55 2.38-1.07 3.57-1.6.38-.16.75-.34 1.13-.5 3.2-1.37 6.43-2.64 9.69-3.82l1.11-.39c1.25-.44 2.5-.88 3.76-1.29.51-.17 1.02-.32 1.52-.49 1.13-.36 2.27-.72 3.4-1.06.56-.17 1.12-.33 1.68-.49 1.1-.32 2.2-.63 3.3-.92.58-.15 1.16-.31 1.74-.46a200 200 0 0 1 5.03-1.22c1.14-.26 2.28-.51 3.42-.74.54-.11 1.08-.23 1.62-.34q1.845-.36 3.69-.69c.46-.08.91-.17 1.37-.25 1.46-.25 2.93-.48 4.4-.69.22-.03.45-.07.67-.1q5.205-.735 10.44-1.17c.31-.02.62-.04.93-.07 1.4-.11 2.8-.21 4.2-.28.49-.03.97-.04 1.46-.07 1.23-.06 2.46-.11 3.7-.14l1.67-.03q1.755-.03 3.51-.03c.58 0 1.17 0 1.75.01 1.15.01 2.31.04 3.46.07l1.76.06c1.17.05 2.34.11 3.5.18.56.03 1.13.06 1.69.1 1.23.08 2.46.19 3.69.3.49.04.99.08 1.48.13 1.43.14 2.87.3 4.3.47.28.03.57.06.85.1 3.47.44 6.94.98 10.39 1.61.45.08.9.18 1.35.27 1.01.2 2.03.38 3.04.6-3.44-27.06-13.83-52.64-30.46-74.76-25.37-33.73-62.35-55.55-104.14-61.46-41.78-5.91-83.37 4.81-117.1 30.17-12.84 9.66-24.06 21.1-33.35 34.02-17.73 24.64-27.49 53.21-29.32 82.19 33.64 7.4 64.25 28.12 83.2 60.08 1.12 1.89 2.17 3.8 3.18 5.72 5.43 10.67 21.36 47.44 11.99 95.91-28.74-20.65-57.3-28.89-78.37-32-.91-1.05-1.81-2.13-2.7-3.21-.46-.56-.94-1.11-1.39-1.67-1.37-1.69-2.71-3.4-4.02-5.14-.61-.81-1.22-1.64-1.86-2.52-.65-.9-1.32-1.85-2.03-2.86 0 0-.01-.02-.02-.02-1.19-1.7-2.33-3.42-3.45-5.15-.11-.18-.23-.35-.35-.53-1.06-1.65-2.09-3.32-3.09-4.99-.16-.26-.32-.52-.47-.79q-1.455-2.46-2.82-4.95c-.16-.3-.33-.6-.49-.9-.9-1.65-1.77-3.32-2.61-4.99l-.45-.9c-.84-1.7-1.66-3.4-2.45-5.12-.12-.25-.23-.51-.34-.76-.8-1.78-1.58-3.56-2.33-5.36-.06-.14-.11-.29-.17-.43-.73-1.79-1.44-3.58-2.11-5.38-.06-.16-.12-.31-.18-.47-.67-1.8-1.3-3.62-1.91-5.44-.09-.28-.19-.56-.28-.84-.58-1.76-1.13-3.53-1.66-5.3l-.3-1.01c-.51-1.75-.99-3.51-1.44-5.27l-.27-1.05c-.45-1.77-.87-3.55-1.26-5.33l-.21-.96c-.39-1.82-.76-3.65-1.09-5.48-.04-.24-.08-.48-.13-.72-.33-1.87-.64-3.74-.92-5.61-.02-.12-.04-.24-.05-.36q-.405-2.835-.72-5.67l-.09-.78c-.2-1.83-.36-3.67-.51-5.51-.03-.34-.05-.68-.08-1.02-.13-1.8-.23-3.6-.31-5.4-.02-.37-.03-.74-.04-1.11-.07-1.8-.11-3.59-.12-5.39v-1.06c0-1.83.02-3.65.07-5.48 0-.29.02-.59.03-.88.06-1.89.15-3.79.27-5.68.01-.16.02-.32.04-.48.13-1.87.28-3.73.46-5.59.02-.2.03-.39.05-.59.19-1.87.41-3.74.66-5.6l.12-.92c.25-1.81.53-3.61.83-5.41l.18-1.05c.31-1.78.65-3.56 1.01-5.33.07-.35.15-.7.22-1.05.38-1.79.78-3.57 1.21-5.35.07-.31.15-.61.23-.92.45-1.83.93-3.65 1.44-5.47l.18-.62a177 177 0 0 1 1.68-5.55c.03-.08.05-.16.07-.24.6-1.87 1.24-3.73 1.9-5.59l.24-.69c.64-1.78 1.32-3.54 2.02-5.3.12-.29.23-.59.35-.88.7-1.73 1.42-3.44 2.18-5.15.14-.31.27-.62.41-.93.76-1.71 1.55-3.4 2.37-5.09.14-.28.28-.57.42-.85.84-1.72 1.71-3.42 2.61-5.12.11-.22.23-.43.35-.65.95-1.76 1.92-3.52 2.93-5.26l.03-.06c-9.68-1.81-19.54-2.72-29.38-2.72-8.87 0-17.72.74-26.44 2.22-24.95 4.25-47.93 14.17-68.31 29.5-33.54 25.23-55.34 62-61.37 103.53-6.03 41.51 4.37 82.93 29.3 116.64l.78 1.07c17.36 23.08 40.25 40.68 66.69 51.39 17.38-29.21 46.15-51.56 81.9-59.75 13.89-3.18 27.77-3.97 41.21-2.66 15.69 4.3 33.94 11.94 52.1 25.41-25.26 19.92-40.63 42.53-49.87 61.11a183 183 0 0 1-13.01 4.49c-35.4 10.69-72.81 10.39-108.2-.86-31.04-9.87-58.43-27.59-80.04-51.65-29.59 53.99-25.26 120.74 12.4 170.8 37.24 49.51 99.4 72.27 158.94 59.65l-.13-.17 16.22-5.32c28.11-9.23 52.55-25.8 71.41-48.26-22.32-25.57-34.61-59.81-31.32-96.28 1.79-19.81 8-38.15 17.54-54.16 6.78-7.79 14.89-15.57 24.6-22.84 14.73 29.78 34.43 49.86 51.13 62.77.22 4.35.3 8.72.21 13.12-1.11 56.49-27.62 108.35-72.72 142.28-11.2 8.42-23.21 15.48-35.88 21.09 7.17 7.54 15.08 14.38 23.67 20.42 71.25 50.13 170 32.96 220.13-38.29 19.11-27.16 29.06-59 28.79-92.1-.27-32.46-10.57-63.66-28.76-89.61-30.48 15.86-67.15 19.63-102.13 7.36a128.4 128.4 0 0 1-35.88-19.44c-9.54-10.09-19.11-22.93-27.01-39.03 35.03-7.01 60.66-22.5 77.27-35.86a180 180 0 0 1 18.47 5.29c34.31 11.88 64.03 33.55 85.94 62.67 20.21 26.86 32.39 58.03 35.71 90.99 9.77-4.6 19.07-10.21 27.79-16.76 33.72-25.37 55.55-62.35 61.46-104.14s-4.81-83.37-30.18-117.1Z"/><g fill="#248737"><path d="M1135.13 316.84h156.34v48.63h-117.79l-13.33 47.19h104.46v48.63h-118.15l-16.57 59.08h104.82V569h-170.02zm129.32 205.68c0-30.98 24.14-60.52 72.4-62.32l54.03-2.52c5.4-15.49-2.88-22.69-19.09-22.69h-61.24v-43.95h65.2c42.51 0 74.93 26.3 60.16 72.4l-15.13 60.52c-.72 3.24 0 5.04 3.6 5.04h12.97v39.99h-39.99c-10.81 0-18.37-6.12-17.29-17.29-12.61 13.69-32.42 22.69-55.11 22.69-34.22 0-60.52-17.29-60.52-51.87Zm70.24 11.17c21.25 0 40.34-14.41 46.47-36.02l.36-1.8-43.59 2.52c-16.57 1.08-24.14 10.09-24.14 19.45 0 10.08 7.57 15.85 20.89 15.85Zm161.74-114.55v-28.1h43.95v27.38c6.48-19.09 22.33-27.38 42.51-27.38h31.34v43.95h-42.87c-21.61 0-30.98 7.92-38.18 31.7l-28.46 102.3h-50.07l41.79-149.85Z"/><path d="m1630.09 515.68 21.97-80.69h-38.54v-43.95h50.79l14.05-51.51h50.43l-14.41 51.51h46.83v43.95h-59.08l-20.89 74.57c-2.88 10.45 0 15.49 11.17 15.49h31.34V569h-54.03c-32.78 0-50.07-16.57-39.62-53.31Zm186.21-198.84h50.07l-21.25 78.89c10.09-6.48 22.69-10.09 37.1-10.09 38.9 0 71.69 29.18 55.47 83.21l-26.66 100.14h-50.07l28.46-102.66c6.12-22.69-5.76-35.3-24.13-35.3-21.97 0-35.3 15.85-40.7 36.74l-28.46 101.22h-50.07l70.24-252.16Zm202.36 48.63h-76.73v-48.63h204.97v48.63h-76.37V569h-51.87zm125.72 25.57h44.31v31.34c4.32-20.17 18.73-31.34 41.43-31.34h31.7v43.95H2224c-19.81 0-29.18 10.09-29.18 30.26v103.74h-50.43V391.04Zm147.15-73.48h52.95v46.83h-52.95zm1.44 73.48h50.43v177.95h-50.43zm125.54 160.66v17.29h-44.31V316.83h50.43v87.89c10.81-12.25 28.82-19.09 48.99-19.09 50.79 0 85.37 37.82 85.37 94.38s-34.58 94.38-85.37 94.38c-23.05 0-43.59-8.28-55.11-22.69m88.62-71.68c0-29.18-16.57-48.99-41.79-48.99s-41.43 19.81-41.43 48.99 16.57 48.99 41.43 48.99 41.79-19.81 41.79-48.99m72.39-1.08c0-56.55 36.02-93.3 88.62-93.3s88.25 35.3 88.25 91.86c0 6.48-.36 12.97-1.08 20.53h-126.08c2.16 22.33 16.93 34.58 41.07 34.58 16.21 0 26.66-6.84 31.34-16.57h51.51c-10.45 35.3-37.82 58.36-83.21 58.36-54.39 0-90.42-37.82-90.42-95.46m126.08-19.1v-.72c0-20.17-12.97-33.86-37.46-33.86s-37.82 13.69-39.27 34.58z"/></g><path fill="none" d="M2869.38 923H0V0h2869.38"/></svg>