<svg width="80" height="80" viewBox="0 0 80 80" fill="none" xmlns="http://www.w3.org/2000/svg">
<path d="M39.9416 79.1241C61.646 79.1241 79.2409 61.5292 79.2409 39.8248C79.2409 18.1205 61.646 0.525574 39.9416 0.525574C18.2372 0.525574 0.642334 18.1205 0.642334 39.8248C0.642334 61.5292 18.2372 79.1241 39.9416 79.1241Z" fill="white"/>
<path d="M11.854 53.8395L12.9635 56.0585L15.3576 56.4088L13.6058 58.1023L14.0146 60.4964L11.854 59.3869L9.69341 60.4964L10.1022 58.1023L8.35034 56.4088L10.7445 56.0585L11.854 53.8395Z" fill="#004899"/>
<path d="M68.2043 53.8395L69.3138 56.0585L71.708 56.4088L69.9562 58.1023L70.3649 60.4964L68.2043 59.3869L66.0437 60.4964L66.4525 58.1023L64.7007 56.4088L67.1532 56.0585L68.2043 53.8395Z" fill="#004899"/>
<path d="M6.36487 44.6132C7.82472 44.3212 8.9926 45.2555 9.40136 47.0073L9.57654 47.9416L11.1532 47.5912L11.6203 49.7518L5.25538 51.0949L4.61304 48C4.20428 46.2482 4.90501 44.9051 6.36487 44.6132ZM6.83202 46.7737C6.36487 46.8905 6.13129 47.2409 6.24808 47.8248L6.42326 48.5839L7.94151 48.292L7.76633 47.5329C7.64954 46.8905 7.29917 46.6569 6.83202 46.7737Z" fill="#004899"/>
<path d="M3.9124 43.4452L3.854 41.2263L8.70072 41.1679L8.64233 38.2482H10.3358L10.3941 43.3869L3.9124 43.4452Z" fill="#004899"/>
<path d="M10.1606 33.2263L9.63507 35.6788L10.6862 36.3211L10.219 38.5401L4.43799 34.3941L4.90514 32.2919L11.9124 30.8321L11.4453 33.0511L10.1606 33.2263ZM8.46719 33.5182L6.71536 33.8102L8.17522 34.7445L8.46719 33.5182Z" fill="#004899"/>
<path d="M11.3285 30.9489L10.1606 29.6642C10.7446 29.2555 11.2701 28.6131 11.6205 27.9708C11.854 27.3869 11.854 27.1533 11.6205 27.0365C10.8613 26.6861 9.98543 30.2482 7.76645 29.2555C6.65697 28.7299 6.18981 27.4453 7.00733 25.5766C7.3577 24.7591 7.94164 24.0584 8.52558 23.5912L9.69346 24.8759C9.10952 25.3431 8.75916 25.8102 8.52558 26.3358C8.23361 26.9197 8.3504 27.2117 8.52558 27.2701C9.22631 27.6204 10.1606 24.0584 12.3212 25.0511C13.4307 25.5183 13.8978 26.8613 13.0803 28.7299C12.6716 29.6642 11.9708 30.5402 11.3285 30.9489Z" fill="#004899"/>
<path d="M11.3286 21.6642L10.2191 23.2409L8.81763 22.2482L12.3213 17.3431L13.7227 18.3358L12.6132 19.854L16.5257 22.6569L15.241 24.4672L11.3286 21.6642Z" fill="#004899"/>
<path d="M13.2554 16.4087L14.7736 14.8321L19.4452 19.3868L17.9269 20.9635L13.2554 16.4087Z" fill="#004899"/>
<path d="M17.8686 16.2335C16.6424 14.5985 17.0511 12.5547 18.7446 11.3284C19.7957 10.5693 20.8468 10.3357 21.8978 10.6277L21.5475 12.4379C20.9635 12.2627 20.438 12.3211 19.9708 12.6715C19.2117 13.197 19.0949 14.073 19.7373 14.8905C20.3796 15.708 21.1971 15.8248 21.9562 15.2992C22.4234 14.9489 22.5986 14.4233 22.657 13.8394L24.5256 14.0146C24.5256 15.0657 24 16.0584 22.9489 16.8175C21.1387 18.1022 19.0365 17.8686 17.8686 16.2335Z" fill="#004899"/>
<path d="M27.5035 8.64235L25.6933 9.28468L25.1094 7.64965L30.7736 5.66425L31.3576 7.29928L29.5473 7.94162L31.1824 12.4964L29.0802 13.2555L27.5035 8.64235Z" fill="#004899"/>
<path d="M32.1167 5.43061L34.2773 5.02185L35.5036 11.4452L33.343 11.854L32.1167 5.43061Z" fill="#004899"/>
<path d="M36.146 4.67154L39.3577 4.61314C41.5183 4.55475 43.0365 5.78102 43.0949 7.82482C43.1533 9.86861 41.6351 11.0949 39.4745 11.1533L36.2628 11.2117L36.146 4.67154ZM39.3577 9.40146C40.292 9.40146 40.9343 8.81752 40.8759 7.82482C40.8759 6.83212 40.2336 6.30657 39.2993 6.30657H38.365L38.4234 9.40146H39.3577Z" fill="#004899"/>
<path d="M49.2846 10.7446L48.9342 12.3796L43.6204 11.2701L44.9634 4.84674L50.1605 5.95623L49.8101 7.59127L46.7153 6.94893L46.5401 7.70805L49.2262 8.292L48.8758 9.86864L46.1897 9.2847L46.0145 10.1022L49.2846 10.7446Z" fill="#004899"/>
<path d="M55.4744 9.92704L53.781 8.99274L54.5985 7.47449L59.9124 10.3358L59.0948 11.854L57.4014 10.9197L55.124 15.1825L53.197 14.1314L55.4744 9.92704Z" fill="#004899"/>
<path d="M58.8029 13.9562L61.1387 11.2117L62.8321 12.6715L60.5548 15.3577C59.9124 16.1168 59.9708 16.6423 60.438 17.0511C60.9051 17.4598 61.4307 17.4014 62.073 16.6423L64.3504 13.9562L65.9854 15.3577L63.6496 18.1022C62.365 19.562 60.7299 19.6788 59.2117 18.3942C57.6934 17.0511 57.5183 15.416 58.8029 13.9562Z" fill="#004899"/>
<path d="M65.1678 22.1314L64.8174 21.6059L63.4744 22.5986L62.1897 20.8468L67.4452 16.9927L69.3138 19.5037C70.3649 20.9635 70.3065 22.4818 69.0802 23.3577C68.3211 23.9416 67.5036 24 66.686 23.5913L65.8685 25.8686L64.4671 24L65.1678 22.1314ZM67.8539 20.3796L67.3868 19.7373L66.1605 20.6716L66.6277 21.3139C66.978 21.7811 67.3868 21.8395 67.7955 21.6059C68.1459 21.2555 68.2043 20.8468 67.8539 20.3796Z" fill="#004899"/>
<path d="M74.5692 29.5475L68.5547 32.1168L67.8539 30.4818L69.6057 27.0365L66.8612 28.2044L66.0437 26.219L72.0583 23.6497L72.759 25.2847L71.0072 28.73L73.7517 27.5621L74.5692 29.5475Z" fill="#004899"/>
<path d="M71.3577 37.8394L69.7227 38.1313L68.73 32.8175L75.1533 31.6496L76.0876 36.8467L74.4526 37.1386L73.8687 34.0438L73.1095 34.1605L73.6351 36.9051L72.0584 37.197L71.5329 34.4525L70.7154 34.6277L71.3577 37.8394Z" fill="#004899"/>
<path d="M71.2992 41.5183V40.9344L69.6642 40.876L69.7226 38.657L76.2627 38.8322L76.1459 41.9855C76.0876 43.7957 75.0949 44.9052 73.5766 44.9052C72.6423 44.9052 71.9416 44.438 71.5328 43.6205L69.489 44.9052L69.5474 42.5694L71.2992 41.5183ZM74.5109 41.8103V40.9928L72.9927 40.9344V41.7519C72.9927 42.3358 73.2846 42.6278 73.7518 42.6862C74.2189 42.6862 74.5109 42.4526 74.5109 41.8103Z" fill="#004899"/>
<path d="M70.073 45.0219L71.4745 46.073C70.9489 46.5986 70.5402 47.3577 70.365 48C70.1898 48.584 70.3066 48.8759 70.4818 48.9343C71.2993 49.1095 71.4745 45.4891 73.8687 46.0146C75.0365 46.3066 75.7957 47.5329 75.2701 49.4599C75.0365 50.3358 74.6862 51.1533 74.1606 51.7372L72.7592 50.7445C73.2263 50.219 73.5183 49.635 73.6351 49.1095C73.8103 48.4672 73.6351 48.2336 73.4599 48.1752C72.7008 48 72.4672 51.6788 70.1314 51.0949C68.9635 50.8029 68.2044 49.5767 68.73 47.6496C69.0219 46.5986 69.5475 45.5475 70.073 45.0219Z" fill="#004899"/>
<path d="M40.4672 69.5474L42.1606 72.9343L45.8395 73.4598L43.1533 76.0876L43.7957 79.7664L40.4672 78.0146L37.1971 79.7664L37.8395 76.0876L35.1533 73.4598L38.8322 72.9343L40.4672 69.5474Z" fill="#004899"/>
<path d="M33.8101 59.9708C34.3583 59.9708 34.8028 59.5263 34.8028 58.9781C34.8028 58.4298 34.3583 57.9854 33.8101 57.9854C33.2618 57.9854 32.8174 58.4298 32.8174 58.9781C32.8174 59.5263 33.2618 59.9708 33.8101 59.9708Z" fill="white"/>
<path d="M54.3066 33.927C52.438 32.4671 50.803 30.7153 48.7008 29.781C45.8395 28.4963 43.095 28.7299 40.4672 30.2482C38.3066 31.4744 36.5548 33.2847 34.9782 35.1533C33.4599 36.9635 32.1169 38.8905 30.7154 40.7591C29.0804 42.9781 26.9782 44.5547 24.2336 45.1387C21.6059 45.6642 19.095 45.1387 16.7592 43.7956C16.5256 43.6204 16.4672 43.4452 16.4672 43.2117C16.0001 36.2628 18.1023 30.1898 22.8322 25.1095C26.6278 21.0803 31.2993 18.6861 36.7884 17.9854C43.5037 17.1679 49.5767 18.9197 54.7738 23.2993C59.3869 27.2117 62.0731 32.1752 62.949 38.1898C63.1826 39.8248 63.1826 41.5182 63.0658 43.2117C63.0658 43.3868 63.0074 43.6204 62.8322 43.7372C60.5548 45.4306 58.2774 46.9489 55.4745 47.708C51.9125 48.7007 48.7592 47.4744 46.8322 44.3795C45.5475 42.3941 45.6643 40.292 46.7154 38.2482C47.5913 36.4963 49.0512 35.3284 50.9782 34.8613C52.0293 34.5109 53.1388 34.219 54.3066 33.927Z" fill="#99CCFF"/>
<path d="M20.6132 40.4672C20.73 40.7008 20.7884 41.1095 21.0804 41.0511C21.4891 40.9927 21.6643 40.6424 21.7227 40.4088C21.8395 40.0584 21.7227 39.5913 21.6643 39.2409C21.5475 38.7154 21.4307 38.2482 21.2556 37.7811C21.2556 37.6059 21.4307 37.5475 21.4891 37.6643C22.0147 38.4234 22.5986 39.1825 23.1242 39.9417C23.7665 40.876 24.3504 41.8687 24.9928 42.7446C25.168 42.9198 25.4599 43.2701 25.8687 43.0365C26.3942 42.7446 26.1607 42.3358 25.9855 42.0438C25.9271 41.9271 25.8687 41.8687 25.8103 41.7519C25.3431 40.7008 24.876 39.6497 24.4088 38.657C24.5256 38.4818 24.9928 38.949 25.168 39.1241C26.0439 39.9417 26.9198 40.8176 27.8541 41.5767C28.1461 41.8103 28.6716 42.219 29.022 41.6935C29.3723 41.1679 29.022 40.9927 28.73 40.6424C27.7957 39.5913 26.8614 38.5402 25.9271 37.5475C25.8103 37.4307 25.9855 37.3139 26.1023 37.3723C27.095 38.1314 28.0293 38.949 29.022 39.6497C29.314 39.8833 29.8395 40.3504 30.1899 39.8249C30.5986 39.2993 30.1899 39.0073 29.8979 38.7154C28.9052 37.7811 27.8541 36.9052 26.8614 35.9708C26.6862 35.7957 26.511 35.5037 26.5694 35.3285C26.7446 35.1533 27.0366 35.1533 27.2118 35.1533C28.0877 35.2117 28.9052 35.3869 29.7811 35.4453C30.1315 35.4453 30.8906 35.5621 30.8906 35.0365C30.949 34.6278 30.365 34.4526 30.0147 34.3942C27.9709 33.8103 25.8687 33.4015 24.1169 31.9417C23.241 31.1825 22.4234 30.4234 22.0147 29.3723C21.7227 28.5548 21.4307 27.7957 21.1388 26.9781C20.0877 28.3796 19.1534 29.7811 18.4526 31.2993C18.8614 32.1168 19.095 32.9927 19.0366 33.9271C18.9782 36.2044 19.5037 38.365 20.6132 40.4672Z" fill="white"/>
<path d="M56.2919 32.8759C55.1241 34.5693 53.3722 35.3869 51.7372 36.3796C51.5036 36.5547 50.9781 36.7883 51.1533 37.1387C51.2701 37.5474 51.9124 37.3139 52.2044 37.2555C52.9635 37.0219 53.6642 36.6715 54.4233 36.438C54.5985 36.3796 54.8321 36.3212 55.0657 36.438C55.1825 36.6131 55.0657 36.9051 54.9489 37.0803C54.3065 38.1314 53.6058 39.1241 52.9051 40.1752C52.6715 40.5255 52.4379 40.8759 52.9051 41.2263C53.3722 41.5766 53.6642 41.0511 53.8978 40.8175C54.5985 40 55.2409 39.0657 55.9416 38.1898C56.0584 38.1314 56.2336 38.1898 56.1752 38.3066C55.5912 39.4161 55.0073 40.5839 54.4233 41.6934C54.2482 42.0438 53.9562 42.3358 54.3649 42.6861C54.8321 43.0365 55.1825 42.5693 55.3576 42.2774C56 41.4015 56.5839 40.4671 57.1679 39.5328C57.2846 39.2993 57.5766 38.8321 57.6934 38.9489C57.5182 39.9416 57.343 40.9927 57.1679 41.9854C57.1679 42.1022 57.1095 42.1606 57.1095 42.2774C57.0511 42.5693 56.9343 42.9781 57.4014 43.1533C57.8102 43.2701 58.0438 42.9197 58.1022 42.6861C58.4525 41.7518 58.7445 40.7591 59.0949 39.7664C59.3868 38.9489 59.6788 38.1898 60.0292 37.4306C60.0876 37.3139 60.2044 37.3723 60.2627 37.489C60.2627 37.9562 60.2044 38.4234 60.2627 38.8905C60.2627 39.2409 60.3211 39.6496 60.4963 39.9416C60.6131 40.1168 60.8467 40.3504 61.1971 40.3504C61.4306 40.3504 61.4306 39.9416 61.489 39.7664C61.9562 37.6642 61.8978 35.6788 61.3138 33.5766C61.1387 32.9343 61.0803 32.292 61.1387 31.6496C60.3211 29.8394 59.2701 28.146 57.9854 26.5693C57.8686 27.7956 57.7518 29.0219 57.635 30.2482C57.4598 31.1825 56.8759 32 56.2919 32.8759Z" fill="white"/>
<path d="M50.2775 33.0511C48.7593 33.5183 47.533 34.2774 46.4819 35.2701C43.7374 37.9562 42.6863 43.2701 46.3651 47.0073C49.2264 49.8686 52.5549 50.4526 56.2921 49.3431C58.1607 48.8175 59.8542 47.9416 61.4308 46.8905C61.7228 46.7153 61.9564 46.5402 62.3067 46.3066C60.2045 57.8102 47.2994 68.0876 32.7009 63.6497C30.3067 62.7737 29.4308 62.365 29.2556 62.3066C28.0877 61.7226 26.9199 61.0219 25.8688 60.2628C25.8104 60.2628 22.5987 57.4015 22.4819 57.2263C22.0148 56.7007 21.5476 56.1752 21.1388 55.5913C21.0221 55.4161 18.9199 52.146 18.8031 51.9124C17.8688 50.0438 17.168 48.1752 16.7593 46.0146C17.6936 46.365 18.5111 46.6569 19.387 46.8321C24.7009 48 28.7885 46.0146 32.0002 41.927C33.752 39.6497 35.387 37.2555 37.314 35.1533C38.2483 34.1606 39.241 33.2263 40.3505 32.4088C43.1534 30.4234 46.9491 30.4818 49.6936 32.5256C49.8104 32.7007 50.0439 32.8759 50.2775 33.0511Z" fill="#004899"/>
<path d="M54.3066 33.927C52.438 32.4671 50.803 30.7153 48.7008 29.781C45.8395 28.4963 43.095 28.7299 40.4672 30.2482C38.3066 31.4744 36.5548 33.2847 34.9782 35.1533C33.4599 36.9635 32.1169 38.8905 30.7154 40.7591C29.0804 42.9781 26.9782 44.5547 24.2336 45.1387C21.6059 45.6642 19.095 45.1387 16.7592 43.7956C16.5256 43.6204 16.4672 43.4452 16.4672 43.2117C16.0001 36.2628 18.1023 30.1898 22.8322 25.1095C26.6278 21.0803 31.2993 18.6861 36.7884 17.9854C43.5037 17.1679 49.5767 18.9197 54.7738 23.2993C59.3869 27.2117 62.0731 32.1752 62.949 38.1898C63.1826 39.8248 63.1826 41.5182 63.0658 43.2117C63.0658 43.3868 63.0074 43.6204 62.8322 43.7372C60.5548 45.4306 58.2774 46.9489 55.4745 47.708C51.9125 48.7007 48.7592 47.4744 46.8322 44.3795C45.5475 42.3941 45.6643 40.292 46.7154 38.2482C47.5913 36.4963 49.0512 35.3284 50.9782 34.8613C52.0293 34.5109 53.1388 34.219 54.3066 33.927Z" fill="#99CCFF"/>
<path d="M20.6132 40.4672C20.73 40.7008 20.7884 41.1095 21.0804 41.0511C21.4891 40.9927 21.6643 40.6424 21.7227 40.4088C21.8395 40.0584 21.7227 39.5913 21.6643 39.2409C21.5475 38.7154 21.4307 38.2482 21.2556 37.7811C21.2556 37.6059 21.4307 37.5475 21.4891 37.6643C22.0147 38.4234 22.5986 39.1825 23.1242 39.9417C23.7665 40.876 24.3504 41.8687 24.9928 42.7446C25.168 42.9198 25.4599 43.2701 25.8687 43.0365C26.3942 42.7446 26.1607 42.3358 25.9855 42.0438C25.9271 41.9271 25.8687 41.8687 25.8103 41.7519C25.3431 40.7008 24.876 39.6497 24.4088 38.657C24.5256 38.4818 24.9928 38.949 25.168 39.1241C26.0439 39.9417 26.9198 40.8176 27.8541 41.5767C28.1461 41.8103 28.6716 42.219 29.022 41.6935C29.3723 41.1679 29.022 40.9927 28.73 40.6424C27.7957 39.5913 26.8614 38.5402 25.9271 37.5475C25.8103 37.4307 25.9855 37.3139 26.1023 37.3723C27.095 38.1314 28.0293 38.949 29.022 39.6497C29.314 39.8833 29.8395 40.3504 30.1899 39.8249C30.5986 39.2993 30.1899 39.0073 29.8979 38.7154C28.9052 37.7811 27.8541 36.9052 26.8614 35.9708C26.6862 35.7957 26.511 35.5037 26.5694 35.3285C26.7446 35.1533 27.0366 35.1533 27.2118 35.1533C28.0877 35.2117 28.9052 35.3869 29.7811 35.4453C30.1315 35.4453 30.8906 35.5621 30.8906 35.0365C30.949 34.6278 30.365 34.4526 30.0147 34.3942C27.9709 33.8103 25.8687 33.4015 24.1169 31.9417C23.241 31.1825 22.4234 30.4234 22.0147 29.3723C21.7227 28.5548 21.4307 27.7957 21.1388 26.9781C20.0877 28.3796 19.1534 29.7811 18.4526 31.2993C18.8614 32.1168 19.095 32.9927 19.0366 33.9271C18.9782 36.2044 19.5037 38.365 20.6132 40.4672Z" fill="white"/>
<path d="M56.2919 32.8759C55.1241 34.5693 53.3722 35.3869 51.7372 36.3796C51.5036 36.5547 50.9781 36.7883 51.1533 37.1387C51.2701 37.5474 51.9124 37.3139 52.2044 37.2555C52.9635 37.0219 53.6642 36.6715 54.4233 36.438C54.5985 36.3796 54.8321 36.3212 55.0657 36.438C55.1825 36.6131 55.0657 36.9051 54.9489 37.0803C54.3065 38.1314 53.6058 39.1241 52.9051 40.1752C52.6715 40.5255 52.4379 40.8759 52.9051 41.2263C53.3722 41.5766 53.6642 41.0511 53.8978 40.8175C54.5985 40 55.2409 39.0657 55.9416 38.1898C56.0584 38.1314 56.2336 38.1898 56.1752 38.3066C55.5912 39.4161 55.0073 40.5839 54.4233 41.6934C54.2482 42.0438 53.9562 42.3358 54.3649 42.6861C54.8321 43.0365 55.1825 42.5693 55.3576 42.2774C56 41.4015 56.5839 40.4671 57.1679 39.5328C57.2846 39.2993 57.5766 38.8321 57.6934 38.9489C57.5182 39.9416 57.343 40.9927 57.1679 41.9854C57.1679 42.1022 57.1095 42.1606 57.1095 42.2774C57.0511 42.5693 56.9343 42.9781 57.4014 43.1533C57.8102 43.2701 58.0438 42.9197 58.1022 42.6861C58.4525 41.7518 58.7445 40.7591 59.0949 39.7664C59.3868 38.9489 59.6788 38.1898 60.0292 37.4306C60.0876 37.3139 60.2044 37.3723 60.2627 37.489C60.2627 37.9562 60.2044 38.4234 60.2627 38.8905C60.2627 39.2409 60.3211 39.6496 60.4963 39.9416C60.6131 40.1168 60.8467 40.3504 61.1971 40.3504C61.4306 40.3504 61.4306 39.9416 61.489 39.7664C61.9562 37.6642 61.8978 35.6788 61.3138 33.5766C61.1387 32.9343 61.0803 32.292 61.1387 31.6496C60.3211 29.8394 59.2701 28.146 57.9854 26.5693C57.8686 27.7956 57.7518 29.0219 57.635 30.2482C57.4598 31.1825 56.8759 32 56.2919 32.8759Z" fill="white"/>
<path d="M50.2775 33.0511C48.7593 33.5183 47.533 34.2774 46.4819 35.2701C43.7374 37.9562 42.6863 43.2701 46.3651 47.0073C49.2264 49.8686 52.5549 50.4526 56.2921 49.3431C58.1607 48.8175 59.8542 47.9416 61.4308 46.8905C61.7228 46.7153 61.9564 46.5402 62.3067 46.3066C60.2045 57.8102 47.2994 68.0876 32.7009 63.6497C30.3067 62.7737 29.4308 62.365 29.2556 62.3066C28.0877 61.7226 26.9199 61.0219 25.8688 60.2628C25.8104 60.2628 22.5987 57.4015 22.4819 57.2263C22.0148 56.7007 21.5476 56.1752 21.1388 55.5913C21.0221 55.4161 18.9199 52.146 18.8031 51.9124C17.8688 50.0438 17.168 48.1752 16.7593 46.0146C17.6936 46.365 18.5111 46.6569 19.387 46.8321C24.7009 48 28.7885 46.0146 32.0002 41.927C33.752 39.6497 35.387 37.2555 37.314 35.1533C38.2483 34.1606 39.241 33.2263 40.3505 32.4088C43.1534 30.4234 46.9491 30.4818 49.6936 32.5256C49.8104 32.7007 50.0439 32.8759 50.2775 33.0511Z" fill="#004899"/>
<path d="M44.6716 60.3795C45.0219 59.7956 45.3723 59.2116 45.6643 58.6277C45.8979 58.2189 45.7811 57.5766 45.3723 57.2846C45.3139 57.2262 45.1971 57.1678 45.1387 57.1094L44.8468 56.9343C44.6132 56.8175 44.3796 56.6423 44.0876 56.5255C43.7373 56.3503 43.5621 56.4087 43.3285 56.7591C43.3285 56.7591 43.3285 56.7591 43.3285 56.8175C43.0949 56.6423 42.9781 56.4087 43.0365 56.1167C43.0949 55.2408 42.9782 54.4233 42.5694 53.6642C42.1022 52.7299 41.3431 51.9707 40.1752 51.4452C39.8249 51.27 39.4745 51.3284 39.1825 51.6204C39.1825 51.6204 39.1825 51.6204 39.1241 51.562C38.8322 51.3868 38.5402 51.2116 38.2482 51.0364C37.8979 50.8613 37.6059 50.6277 37.2555 50.4525L36.3212 49.927C35.9125 49.6934 35.5621 49.4598 35.1533 49.2262C35.2701 48.8175 35.0949 48.4671 34.7446 48.2919L34.4526 47.9999C33.8687 47.6496 33.2263 47.2992 32.6424 47.0072C31.5913 46.4817 30.2482 46.8905 29.6643 47.9416C29.0803 48.9926 28.438 50.0437 27.8541 51.1532L27.3869 51.9124C27.3285 51.9708 27.3285 52.0291 27.2701 52.1459C27.0949 52.6131 27.0949 53.1386 27.1533 53.5474C27.2701 54.1897 27.6789 54.7737 28.3212 55.124C28.8468 55.416 29.3723 55.708 29.8979 55.9999L30.1314 56.1751C30.4234 56.3503 30.7154 56.3503 31.0073 56.2335C31.1241 56.1751 31.1825 56.1167 31.2409 56.0583L32 56.4671C33.1095 57.1094 34.219 57.7518 35.3285 58.3941C35.2701 58.8029 35.3869 59.1532 35.6789 59.3284C36.438 59.854 37.1971 60.1459 37.9563 60.2043C39.1241 60.3211 40.2336 60.0875 41.1679 59.3868C41.4599 59.2116 41.6935 59.1532 41.9271 59.3284C41.9271 59.3284 41.9271 59.3868 41.8687 59.3868C41.6935 59.6788 41.7519 59.9707 42.1022 60.1459C42.4526 60.3795 42.8614 60.5547 43.2117 60.7883C43.7373 61.0218 44.438 60.8467 44.6716 60.3795ZM43.6789 59.7956C43.5037 59.6788 43.3285 59.6204 43.1533 59.5036L43.0949 59.4452L44.146 57.635L44.2044 57.6934C44.3796 57.8102 44.5548 57.927 44.7884 58.0437C44.8468 58.0437 44.8468 58.1021 44.7884 58.1605C44.4964 58.6861 44.2044 59.2116 43.8541 59.7956C43.7957 59.7956 43.7373 59.854 43.6789 59.7956ZM39.0657 52.8467C38.8906 52.7299 38.7738 52.7299 38.657 52.7883C38.4818 52.8467 38.365 52.9051 38.3066 53.0802L35.7957 57.4598L31.8249 55.1824L32.1168 54.6569C32.8176 53.4306 33.5767 52.1459 34.2774 50.9197C34.3358 50.8029 34.3942 50.7445 34.3942 50.6277C34.4526 50.3941 34.3942 50.2189 34.1606 50.0437C33.9271 49.927 33.6935 49.927 33.5183 50.1021C33.4599 50.1605 33.4015 50.2773 33.3431 50.3357L30.5402 55.1824L30.073 54.9489C29.6643 54.7153 29.1971 54.4817 28.7884 54.1897C28.146 53.8394 27.9709 53.0218 28.3212 52.3795C29.0219 51.0948 29.7811 49.8102 30.5402 48.5255C30.8906 47.8832 31.7081 47.708 32.3504 48.0583C32.7592 48.2919 33.2263 48.5255 33.6351 48.8175L34.1022 49.1094C33.9855 49.5182 34.1606 49.8686 34.511 50.0437C35.9708 50.8613 37.3723 51.6788 38.8322 52.4963C39.1825 52.6715 39.5329 52.6715 39.8833 52.3795C41.3431 53.0218 42.1606 54.3649 42.0438 55.8832C41.9854 56.5839 42.219 57.1094 42.6862 57.5182C42.7446 57.5766 42.8614 57.635 42.9198 57.6934L42.511 58.3941C41.8687 58.0437 41.2263 58.1021 40.584 58.5109C39.4745 59.2116 38.365 59.3284 37.1387 58.8613C36.9052 58.8029 36.73 58.6861 36.4964 58.5693C36.438 58.5693 36.438 58.5109 36.3796 58.5109C36.3796 58.5109 36.3796 58.4525 36.438 58.4525L39.2409 53.6058C39.4161 53.1386 39.1241 52.9051 39.0657 52.8467ZM34.219 48.8759L34.1606 48.9343L34.219 48.8759Z" fill="white"/>
<path d="M38.7737 48.8759C39.322 48.8759 39.7664 48.4315 39.7664 47.8832C39.7664 47.3349 39.322 46.8905 38.7737 46.8905C38.2255 46.8905 37.781 47.3349 37.781 47.8832C37.781 48.4315 38.2255 48.8759 38.7737 48.8759Z" fill="white"/>
<path d="M28.146 59.7372C28.6943 59.7372 29.1387 59.2928 29.1387 58.7445C29.1387 58.1963 28.6943 57.7518 28.146 57.7518C27.5978 57.7518 27.1533 58.1963 27.1533 58.7445C27.1533 59.2928 27.5978 59.7372 28.146 59.7372Z" fill="white"/>
<path d="M44.73 54.2482C45.2783 54.2482 45.7227 53.8038 45.7227 53.2555C45.7227 52.7073 45.2783 52.2628 44.73 52.2628C44.1817 52.2628 43.7373 52.7073 43.7373 53.2555C43.7373 53.8038 44.1817 54.2482 44.73 54.2482Z" fill="white"/>
<path d="M53.3723 54.5985C53.9206 54.5985 54.365 54.1541 54.365 53.6058C54.365 53.0575 53.9206 52.6131 53.3723 52.6131C52.8241 52.6131 52.3796 53.0575 52.3796 53.6058C52.3796 54.1541 52.8241 54.5985 53.3723 54.5985Z" fill="white"/>
<path d="M50.1023 56.6423C50.6506 56.6423 51.095 56.1979 51.095 55.6496C51.095 55.1014 50.6506 54.6569 50.1023 54.6569C49.5541 54.6569 49.1096 55.1014 49.1096 55.6496C49.1096 56.1979 49.5541 56.6423 50.1023 56.6423Z" fill="white"/>
<path d="M34.1607 42.3358C34.58 42.3358 34.9199 41.9959 34.9199 41.5766C34.9199 41.1574 34.58 40.8175 34.1607 40.8175C33.7415 40.8175 33.4016 41.1574 33.4016 41.5766C33.4016 41.9959 33.7415 42.3358 34.1607 42.3358Z" fill="white"/>
<path d="M41.6934 40.3504C42.2416 40.3504 42.6861 39.9059 42.6861 39.3577C42.6861 38.8094 42.2416 38.365 41.6934 38.365C41.1451 38.365 40.7007 38.8094 40.7007 39.3577C40.7007 39.9059 41.1451 40.3504 41.6934 40.3504Z" fill="white"/>
<path d="M38.073 44.438C38.6213 44.438 39.0657 43.9935 39.0657 43.4453C39.0657 42.897 38.6213 42.4526 38.073 42.4526C37.5248 42.4526 37.0803 42.897 37.0803 43.4453C37.0803 43.9935 37.5248 44.438 38.073 44.438Z" fill="white"/>
<path d="M47.4746 61.7226C48.0229 61.7226 48.4673 61.2782 48.4673 60.7299C48.4673 60.1817 48.0229 59.7372 47.4746 59.7372C46.9264 59.7372 46.4819 60.1817 46.4819 60.7299C46.4819 61.2782 46.9264 61.7226 47.4746 61.7226Z" fill="white"/>
<path d="M22.5403 51.0365C23.0886 51.0365 23.533 50.592 23.533 50.0438C23.533 49.4955 23.0886 49.0511 22.5403 49.0511C21.9921 49.0511 21.5476 49.4955 21.5476 50.0438C21.5476 50.592 21.9921 51.0365 22.5403 51.0365Z" fill="white"/>
<path d="M24.7007 55.3576C25.0877 55.3576 25.4015 55.0439 25.4015 54.6569C25.4015 54.2699 25.0877 53.9562 24.7007 53.9562C24.3137 53.9562 24 54.2699 24 54.6569C24 55.0439 24.3137 55.3576 24.7007 55.3576Z" fill="white"/>
<path d="M26.511 50.1022C26.898 50.1022 27.2118 49.7885 27.2118 49.4015C27.2118 49.0145 26.898 48.7007 26.511 48.7007C26.124 48.7007 25.8103 49.0145 25.8103 49.4015C25.8103 49.7885 26.124 50.1022 26.511 50.1022Z" fill="white"/>
<path d="M42.6863 48.5839C43.0733 48.5839 43.3871 48.2702 43.3871 47.8832C43.3871 47.4962 43.0733 47.1825 42.6863 47.1825C42.2993 47.1825 41.9856 47.4962 41.9856 47.8832C41.9856 48.2702 42.2993 48.5839 42.6863 48.5839Z" fill="white"/>
<path d="M47.4744 51.27C47.8614 51.27 48.1751 50.9563 48.1751 50.5693C48.1751 50.1823 47.8614 49.8686 47.4744 49.8686C47.0874 49.8686 46.7737 50.1823 46.7737 50.5693C46.7737 50.9563 47.0874 51.27 47.4744 51.27Z" fill="white"/>
<path d="M33.4014 45.8978C33.7884 45.8978 34.1021 45.5841 34.1021 45.1971C34.1021 44.8101 33.7884 44.4963 33.4014 44.4963C33.0144 44.4963 32.7007 44.8101 32.7007 45.1971C32.7007 45.5841 33.0144 45.8978 33.4014 45.8978Z" fill="white"/>
<path d="M41.9854 44.7883C42.3724 44.7883 42.6861 44.4746 42.6861 44.0876C42.6861 43.7006 42.3724 43.3868 41.9854 43.3868C41.5984 43.3868 41.2847 43.7006 41.2847 44.0876C41.2847 44.4746 41.5984 44.7883 41.9854 44.7883Z" fill="white"/>
<path d="M80 40C80 17.927 62.0146 0 40 0C17.9854 0 0 17.927 0 40C0 60.6131 15.708 77.6642 35.7372 79.7664L35.9708 78.365C16.5839 76.3796 1.40146 59.9124 1.40146 40C1.40146 18.6861 18.6861 1.40146 40 1.40146C61.3139 1.40146 78.5985 18.6861 78.5985 40C78.5985 59.562 63.9416 75.7956 45.0219 78.2482L45.2555 79.6496C64.8175 77.0803 80 60.2628 80 40Z" fill="#004899"/>
<path d="M68.0877 40.7591C68.0293 35.9708 66.5694 31.5329 64.1753 27.6788C60.8468 21.1387 54.949 16 47.4745 13.9562C37.022 11.1533 25.6935 15.0073 18.9782 23.3577C16.1169 26.9781 14.3066 31.1825 13.5475 35.562C11.7373 42.4526 12.7884 50.0438 16.7592 56.2336C22.949 65.8102 34.9782 70.365 46.0731 67.3285C49.4015 66.3942 52.438 64.8175 55.0658 62.8321C62.7738 58.219 67.9125 50.0438 68.0877 40.7591ZM67.4453 41.1679C67.3285 49.1095 63.4161 56.2336 57.3431 60.8467C58.3358 59.854 59.2701 58.8029 60.1461 57.6934C64.4672 52.8467 67.095 46.4818 67.1534 39.708C67.1534 38.4818 67.0366 37.2555 66.8614 36.0876C67.2118 37.7226 67.4453 39.4161 67.4453 41.1679ZM19.6205 55.9416C13.0804 47.6496 12.6132 36.0292 18.4526 27.2701C21.3139 22.9489 25.4599 19.7956 30.0731 17.927C35.1534 16.0584 40.876 15.8248 46.2482 17.4015C57.3431 20.6715 64.7008 30.8905 64.876 42.2774C64.8176 47.9416 62.8906 53.3139 59.6205 57.635C56.3504 61.3139 51.9709 64.0584 46.8906 65.3431C44.7884 65.8686 42.5694 66.1606 40.4672 66.1606C32.4672 65.9854 24.6424 62.365 19.6205 55.9416ZM63.5913 28.2044C65.4015 31.8248 66.4526 35.9124 66.511 40.1168C66.4526 44.9635 65.0512 49.635 62.5986 53.6642C64.4088 50.0438 65.4599 46.073 65.5183 41.8686C65.3431 30.365 57.6935 19.9124 46.365 16.7591C44.438 16.2336 42.511 15.9416 40.584 15.8248C43.1534 15.8248 45.7227 16.1168 48.2337 16.8175C54.7738 18.6277 60.2045 22.7737 63.5913 28.2044ZM17.6935 25.8102C24.1753 16.3504 36.438 11.9708 47.7081 14.7737C52.3212 15.8832 56.1169 18.6861 59.2118 21.9562C56.1753 19.2701 52.4964 17.2847 48.4088 16.1752C42.3942 14.5985 36.0877 15.0657 30.4234 17.3431C25.8687 18.9781 21.7227 21.781 18.5694 25.635C17.2847 27.2117 16.1753 28.9635 15.2993 30.7737C15.9417 29.0219 16.6424 27.3285 17.6935 25.8102ZM45.5475 66.9781C35.4453 69.4891 24.584 65.5766 18.3942 57.2847C15.2993 53.1387 13.6059 48.1752 13.3139 43.1533C13.7811 47.1241 15.1242 50.9781 17.3431 54.4234C22.365 62.1898 31.2409 66.6861 40.3504 66.6277C42.9198 66.6861 45.4891 66.3942 48.0585 65.6934C49.5183 65.2847 50.9198 64.8175 52.2628 64.1752C50.2191 65.4599 47.9417 66.3942 45.5475 66.9781Z" fill="#004899"/>
</svg>